<?xml version="1.0" encoding="UTF-8" standalone="no"?>
<svg
   xmlns:dc="http://purl.org/dc/elements/1.1/"
   xmlns:cc="http://creativecommons.org/ns#"
   xmlns:rdf="http://www.w3.org/1999/02/22-rdf-syntax-ns#"
   xmlns:svg="http://www.w3.org/2000/svg"
   xmlns="http://www.w3.org/2000/svg"
   viewBox="0 0 666.66669 666.66669"
   height="666.66669"
   width="666.66669"
   xml:space="preserve"
   id="svg2"
   version="1.1"><metadata
     id="metadata8"><rdf:RDF><cc:Work
         rdf:about=""><dc:format>image/svg+xml</dc:format><dc:type
           rdf:resource="http://purl.org/dc/dcmitype/StillImage" /></cc:Work></rdf:RDF></metadata><defs
     id="defs6"><clipPath
       id="clipPath20"
       clipPathUnits="userSpaceOnUse"><path
         id="path18"
         d="M 0,500 H 500 V 0 H 0 Z" /></clipPath><clipPath
       id="clipPath28"
       clipPathUnits="userSpaceOnUse"><path
         id="path26"
         d="M 97.0572,453.181 H 402.943 V 219.91 H 97.0572 Z" /></clipPath><clipPath
       id="clipPath360"
       clipPathUnits="userSpaceOnUse"><path
         id="path358"
         d="m 191.2,288.942 h 27.172 V 258.321 H 191.2 Z" /></clipPath><clipPath
       id="clipPath392"
       clipPathUnits="userSpaceOnUse"><path
         id="path390"
         d="m 144.919,235.569 -0.313,-119.087 h 220.218 l 0.312,119.087 z" /></clipPath><clipPath
       id="clipPath404"
       clipPathUnits="userSpaceOnUse"><path
         id="path402"
         d="M 0,500 H 500 V 0 H 0 Z" /></clipPath><clipPath
       id="clipPath572"
       clipPathUnits="userSpaceOnUse"><path
         id="path570"
         d="m 320.035,235.359 h 74.659 V 77.3622 h -74.659 z" /></clipPath><clipPath
       id="clipPath616"
       clipPathUnits="userSpaceOnUse"><path
         id="path614"
         d="m 337.407,253.781 h 44.351 v -33.254 h -44.351 z" /></clipPath><clipPath
       id="clipPath752"
       clipPathUnits="userSpaceOnUse"><path
         id="path750"
         d="m 301.382,88.3973 h 23.71 V 68.9968 h -23.71 z" /></clipPath><clipPath
       id="clipPath772"
       clipPathUnits="userSpaceOnUse"><path
         id="path770"
         d="m 352.873,88.7123 h 28.738 V 68.9474 h -28.738 z" /></clipPath></defs><g
     transform="matrix(1.3333333,0,0,-1.3333333,0,666.66667)"
     id="g10"><path
       id="path12"
       style="fill:#fff8eb;fill-opacity:1;fill-rule:nonzero;stroke:none"
       d="M 0,0 H 500 V 500 H 0 Z" /><g
       id="g14"><g
         clip-path="url(#clipPath20)"
         id="g16"><g
           id="g22"><g
             id="g24" /><g
             id="g48"><g
               style="opacity:0.19999701"
               id="g46"
               clip-path="url(#clipPath28)"><g
                 id="g32"
                 transform="translate(401.2188,390.6416)"><path
                   id="path30"
                   style="fill:#fdbc2f;fill-opacity:1;fill-rule:nonzero;stroke:none"
                   d="M 0,0 C 0.614,-0.611 1.122,-1.291 1.724,-1.911 L -15.68,-18.863 c -0.528,0.542 -0.973,1.136 -1.51,1.673 -36.944,36.944 -85.475,55.416 -134.005,55.416 -48.53,0 -97.061,-18.472 -134.005,-55.416 -0.549,-0.552 -1.018,-1.163 -1.558,-1.718 l -17.404,16.955 c 0.618,0.633 1.146,1.327 1.772,1.953 C -219.005,83.385 -83.385,83.385 0,0" /></g><g
                 id="g36"
                 transform="translate(355.5845,345.008)"><path
                   id="path34"
                   style="fill:#fdbc2f;fill-opacity:1;fill-rule:nonzero;stroke:none"
                   d="m 0,0 c 0.419,-0.416 0.686,-0.92 1.096,-1.342 l -17.393,-16.943 c -0.335,0.341 -0.551,0.756 -0.892,1.095 -24.361,24.36 -56.366,36.54 -88.396,36.541 -32.005,-10e-4 -64.011,-12.181 -88.371,-36.541 -0.353,-0.353 -0.579,-0.778 -0.922,-1.134 l -17.395,16.941 c 0.424,0.433 0.697,0.956 1.127,1.383 C -152.904,58.265 -58.194,58.218 0,0" /></g><g
                 id="g40"
                 transform="translate(312.7048,302.1044)"><path
                   id="path38"
                   style="fill:#fdbc2f;fill-opacity:1;fill-rule:nonzero;stroke:none"
                   d="m 0,0 c 0.223,-0.22 0.362,-0.49 0.579,-0.712 l -17.392,-16.941 c -0.142,0.143 -0.231,0.32 -0.377,0.463 -12.536,12.537 -29.013,18.804 -45.491,18.804 -16.478,0 -32.955,-6.268 -45.492,-18.804 -0.16,-0.16 -0.264,-0.353 -0.421,-0.516 l -17.391,16.943 c 0.234,0.241 0.385,0.526 0.623,0.763 C -90.793,34.57 -34.57,34.57 0,0" /></g><g
                 id="g44"
                 transform="translate(230.1659,239.7198)"><path
                   id="path42"
                   style="fill:#fdbc2f;fill-opacity:1;fill-rule:nonzero;stroke:none"
                   d="m 0,0 c 0,-10.941 8.869,-19.81 19.811,-19.81 10.94,0 19.809,8.869 19.809,19.81 0,10.941 -8.869,19.81 -19.809,19.81 C 8.869,19.81 0,10.941 0,0" /></g></g></g></g><g
           transform="translate(60.962,252.6473)"
           id="g50"><path
             id="path52"
             style="fill:none;stroke:#fb1370;stroke-width:1.38;stroke-linecap:butt;stroke-linejoin:miter;stroke-miterlimit:10;stroke-dasharray:none;stroke-opacity:1"
             d="M 0,0 C 24.546,-48.899 40.523,-102.084 46.988,-156.414" /></g><g
           transform="translate(69.3695,236.219)"
           id="g54"><path
             id="path56"
             style="fill:#fb1370;fill-opacity:1;fill-rule:nonzero;stroke:none"
             d="m 0,0 c -6.306,4.225 -11.561,10.007 -15.167,16.687 -2.042,3.782 -3.587,8.082 -2.891,12.323 0.313,1.906 1.291,3.939 3.132,4.521 1.732,0.547 3.576,-0.38 5.035,-1.462 4.771,-3.535 7.904,-8.973 9.446,-14.707 C 1.097,11.629 1.155,5.591 0,0" /></g><g
           transform="translate(83.0863,202.7318)"
           id="g58"><path
             id="path60"
             style="fill:#fb1370;fill-opacity:1;fill-rule:nonzero;stroke:none"
             d="m 0,0 c -6.568,1.701 -12.844,4.519 -18.478,8.297 -2.301,1.543 -4.571,3.333 -5.805,5.814 -1.234,2.48 -1.148,5.809 0.875,7.703 2.638,2.47 6.983,1.414 10.058,-0.487 5.94,-3.672 10.156,-10.018 11.239,-16.917 -2.226,8.278 -2.574,17.056 -1.009,25.484 0.238,1.284 0.575,2.655 1.565,3.505 1.366,1.173 3.562,0.877 4.975,-0.237 1.413,-1.114 2.193,-2.84 2.762,-4.547 C 9.471,18.753 7.037,7.199 0,0" /></g><g
           transform="translate(91.422,173.7711)"
           id="g62"><path
             id="path64"
             style="fill:#fb1370;fill-opacity:1;fill-rule:nonzero;stroke:none"
             d="m 0,0 c -7.272,0.235 -14.48,2.249 -20.821,5.816 -3.503,1.971 -7.144,5.353 -6.337,9.29 0.537,2.621 3.058,4.515 5.698,4.946 2.64,0.431 5.342,-0.364 7.744,-1.542 6.337,-3.111 11.218,-9.052 13.04,-15.872 -0.932,7.856 -1.17,16.183 2.33,23.277 1.427,2.892 4.47,5.814 7.46,4.608 2.414,-0.973 3.123,-4.015 3.287,-6.613 C 12.71,19.037 12.254,14.029 10.307,9.551 8.361,5.073 4.933,-0.16 0,0" /></g><g
           transform="translate(99.4458,137.5419)"
           id="g66"><path
             id="path68"
             style="fill:#fb1370;fill-opacity:1;fill-rule:nonzero;stroke:none"
             d="m 0,0 c -9.011,-0.518 -18.753,1.477 -24.964,8.026 -1.972,2.079 -3.584,5.052 -2.556,7.726 0.747,1.942 2.736,3.175 4.766,3.631 4.575,1.027 9.184,-1.204 13.344,-3.369 3.713,-1.932 7.761,-4.248 9.018,-8.241 -0.353,5.007 0.493,10.095 2.449,14.717 1.045,2.47 2.484,4.895 4.735,6.352 0.409,0.265 0.864,0.501 1.352,0.504 0.915,0.006 1.623,-0.783 2.115,-1.555 2.856,-4.482 2.69,-10.403 0.694,-15.329 C 8.958,7.537 5.355,3.443 0,0" /></g><g
           transform="translate(153.5102,84.4211)"
           id="g70"><path
             id="path72"
             style="fill:#fdbc2f;fill-opacity:1;fill-rule:nonzero;stroke:none"
             d="M 0,0 C -13.154,46.184 -46.239,86.319 -89.064,108.045 -99.597,77.829 -90.015,43.159 -70.356,17.912 -50.696,-7.334 -22.229,-24.324 7.211,-36.861 7.734,-25.874 4.39,-15.412 0,0" /></g><g
           transform="translate(71.7451,172.2939)"
           id="g74"><path
             id="path76"
             style="fill:none;stroke:#fefefe;stroke-width:1.48399997;stroke-linecap:butt;stroke-linejoin:miter;stroke-miterlimit:10;stroke-dasharray:none;stroke-opacity:1"
             d="M 0,0 C 25.532,-41.535 53.926,-81.311 84.915,-118.951" /></g><g
           transform="translate(92.5854,160.419)"
           id="g78"><path
             id="path80"
             style="fill:none;stroke:#fefefe;stroke-width:1.48399997;stroke-linecap:butt;stroke-linejoin:miter;stroke-miterlimit:10;stroke-dasharray:none;stroke-opacity:1"
             d="m 0,0 c 0.818,-8.85 2.188,-17.648 4.1,-26.328 -8.665,5.381 -17.534,10.433 -26.581,15.142" /></g><g
           transform="translate(116.3342,137.486)"
           id="g82"><path
             id="path84"
             style="fill:none;stroke:#fefefe;stroke-width:1.48399997;stroke-linecap:butt;stroke-linejoin:miter;stroke-miterlimit:10;stroke-dasharray:none;stroke-opacity:1"
             d="m 0,0 c -0.295,-9.889 -0.484,-19.781 -0.566,-29.674 -10.997,4.186 -21.809,8.854 -32.397,13.987" /></g><g
           transform="translate(136.0732,108.3981)"
           id="g86"><path
             id="path88"
             style="fill:none;stroke:#fefefe;stroke-width:1.48399997;stroke-linecap:butt;stroke-linejoin:miter;stroke-miterlimit:10;stroke-dasharray:none;stroke-opacity:1"
             d="m 0,0 c -1.274,-8.513 -1.873,-17.127 -1.789,-25.735 -10.183,2.778 -20.287,5.842 -30.297,9.188" /></g><g
           transform="translate(131.4457,68.9242)"
           id="g90"><path
             id="path92"
             style="fill:#fdbc2f;fill-opacity:1;fill-rule:nonzero;stroke:none"
             d="m 0,0 c -22.776,24.165 -55.862,38.274 -89.068,37.98 3.151,-21.902 20.069,-40.137 40.175,-49.378 20.105,-9.242 42.989,-10.611 65.053,-8.936 C 12.984,-13.423 7.601,-8.064 0,0" /></g><g
           transform="translate(53.2792,96.8435)"
           id="g94"><path
             id="path96"
             style="fill:none;stroke:#fefefe;stroke-width:1.02600002;stroke-linecap:butt;stroke-linejoin:miter;stroke-miterlimit:10;stroke-dasharray:none;stroke-opacity:1"
             d="M 0,0 C 28.895,-17.372 58.987,-32.752 89.992,-45.996" /></g><g
           transform="translate(69.8531,96.187)"
           id="g98"><path
             id="path100"
             style="fill:none;stroke:#fefefe;stroke-width:1.02600002;stroke-linecap:butt;stroke-linejoin:miter;stroke-miterlimit:10;stroke-dasharray:none;stroke-opacity:1"
             d="m 0,0 c 3.319,-5.172 6.961,-10.138 10.897,-14.858 -7.032,0.546 -14.085,0.824 -21.138,0.835" /></g><g
           transform="translate(91.7322,89.6677)"
           id="g102"><path
             id="path104"
             style="fill:none;stroke:#fefefe;stroke-width:1.02600002;stroke-linecap:butt;stroke-linejoin:miter;stroke-miterlimit:10;stroke-dasharray:none;stroke-opacity:1"
             d="m 0,0 c 2.967,-6.165 6,-12.298 9.098,-18.398 -8.083,-0.93 -16.207,-1.506 -24.341,-1.725" /></g><g
           transform="translate(113.1091,78.0934)"
           id="g106"><path
             id="path108"
             style="fill:none;stroke:#fefefe;stroke-width:1.02600002;stroke-linecap:butt;stroke-linejoin:miter;stroke-miterlimit:10;stroke-dasharray:none;stroke-opacity:1"
             d="m 0,0 c 1.928,-5.632 4.302,-11.111 7.093,-16.368 -7.135,-1.536 -14.314,-2.871 -21.524,-4.004" /></g><g
           transform="translate(406.4225,57.5383)"
           id="g110"><path
             id="path112"
             style="fill:#f85721;fill-opacity:1;fill-rule:nonzero;stroke:none"
             d="m 0,0 c 18.875,13.847 37.733,31.023 42.247,53.994 0.933,4.747 0.808,10.54 -3.141,13.335 -3.219,2.278 -7.85,1.482 -11.056,-0.814 -3.206,-2.297 -5.311,-5.786 -7.327,-9.175 10.442,12.909 19.054,27.298 25.499,42.601 3.954,9.392 7.139,19.538 5.808,29.641 -1.332,10.103 -8.266,20.062 -18.261,22.051 -12.557,2.5 -23.993,-7.772 -31.16,-18.382 -13.622,-20.165 -20.431,-44.037 -27.036,-67.458 2.078,7.869 2.795,16.096 2.109,24.207 -0.197,2.325 -0.561,4.771 -2.023,6.589 -2.769,3.442 -8.451,3.053 -11.951,0.358 -3.499,-2.695 -5.34,-6.965 -6.999,-11.058 C -55.193,56.515 -65.038,26.308 -72.73,-4.438 -47.996,-7.942 -19.133,-14.036 0,0" /></g><g
           transform="translate(437.5807,186.3387)"
           id="g114"><path
             id="path116"
             style="fill:none;stroke:#fefefe;stroke-width:1.06599998;stroke-linecap:butt;stroke-linejoin:miter;stroke-miterlimit:10;stroke-dasharray:none;stroke-opacity:1"
             d="M 0,0 C -24.797,-43.957 -47.255,-89.233 -67.247,-135.574" /></g><g
           transform="translate(447.3076,166.8194)"
           id="g118"><path
             id="path120"
             style="fill:none;stroke:#fefefe;stroke-width:1.06599998;stroke-linecap:butt;stroke-linejoin:miter;stroke-miterlimit:10;stroke-dasharray:none;stroke-opacity:1"
             d="m 0,0 c -7.22,-2.651 -12.984,-8.13 -18.482,-13.509 -6.404,-6.266 -12.749,-12.592 -19.034,-18.976 2.631,13.264 3.011,26.972 1.116,40.361" /></g><g
           transform="translate(368.6943,141.2351)"
           id="g122"><path
             id="path124"
             style="fill:none;stroke:#fefefe;stroke-width:1.06599998;stroke-linecap:butt;stroke-linejoin:miter;stroke-miterlimit:10;stroke-dasharray:none;stroke-opacity:1"
             d="m 0,0 c 5.69,-22.625 9.173,-45.804 10.384,-69.102 16.268,12.823 33.394,26.049 53.744,29.921" /></g><g
           transform="translate(359.6238,90.6467)"
           id="g126"><path
             id="path128"
             style="fill:none;stroke:#fefefe;stroke-width:1.06599998;stroke-linecap:butt;stroke-linejoin:miter;stroke-miterlimit:10;stroke-dasharray:none;stroke-opacity:1"
             d="M 0,0 C 0.389,-4.281 1.472,-8.499 3.196,-12.437" /></g><g
           transform="translate(356.5457,87.0599)"
           id="g130"><path
             id="path132"
             style="fill:none;stroke:#fefefe;stroke-width:1.06599998;stroke-linecap:butt;stroke-linejoin:miter;stroke-miterlimit:10;stroke-dasharray:none;stroke-opacity:1"
             d="M 0,0 C 0.301,-2.639 0.602,-5.278 0.903,-7.918" /></g><g
           transform="translate(429.1349,133.8017)"
           id="g134"><path
             id="path136"
             style="fill:none;stroke:#fefefe;stroke-width:1.06599998;stroke-linecap:butt;stroke-linejoin:miter;stroke-miterlimit:10;stroke-dasharray:none;stroke-opacity:1"
             d="M 0,0 C -3.855,-2.949 -7.499,-6.175 -10.895,-9.643" /></g><g
           transform="translate(427.4554,125.6755)"
           id="g138"><path
             id="path140"
             style="fill:none;stroke:#fefefe;stroke-width:1.06599998;stroke-linecap:butt;stroke-linejoin:miter;stroke-miterlimit:10;stroke-dasharray:none;stroke-opacity:1"
             d="M 0,0 C -2.508,-1.423 -4.863,-3.114 -7.013,-5.035" /></g><g
           transform="translate(424.9561,194.4627)"
           id="g142"><path
             id="path144"
             style="fill:none;stroke:#fefefe;stroke-width:1.06599998;stroke-linecap:butt;stroke-linejoin:miter;stroke-miterlimit:10;stroke-dasharray:none;stroke-opacity:1"
             d="M 0,0 C -0.259,-2.449 -0.518,-4.897 -0.777,-7.346" /></g><g
           transform="translate(421.1911,193.8968)"
           id="g146"><path
             id="path148"
             style="fill:none;stroke:#fefefe;stroke-width:1.06599998;stroke-linecap:butt;stroke-linejoin:miter;stroke-miterlimit:10;stroke-dasharray:none;stroke-opacity:1"
             d="M 0,0 C -0.259,-2.637 -0.517,-5.274 -0.776,-7.911" /></g><g
           transform="translate(389.2794,70.4316)"
           id="g150"><path
             id="path152"
             style="fill:#fdbc2f;fill-opacity:1;fill-rule:nonzero;stroke:none"
             d="M 0,0 C 14.586,29.832 42,53.117 73.799,62.683 77.285,40.832 66.535,18.401 50.074,3.613 33.614,-11.175 12.165,-19.268 -9.403,-24.211 -8.42,-16.669 -4.867,-9.955 0,0" /></g><g
           transform="translate(455.6508,120.2744)"
           id="g154"><path
             id="path156"
             style="fill:none;stroke:#fefefe;stroke-width:1.02600002;stroke-linecap:butt;stroke-linejoin:miter;stroke-miterlimit:10;stroke-dasharray:none;stroke-opacity:1"
             d="M 0,0 C -22.444,-25.159 -46.622,-48.771 -72.305,-70.613" /></g><g
           transform="translate(440.0171,114.7328)"
           id="g158"><path
             id="path160"
             style="fill:none;stroke:#fefefe;stroke-width:1.02600002;stroke-linecap:butt;stroke-linejoin:miter;stroke-miterlimit:10;stroke-dasharray:none;stroke-opacity:1"
             d="m 0,0 c -1.636,-5.924 -3.641,-11.746 -6.001,-17.421 6.554,2.606 13.207,4.964 19.94,7.066" /></g><g
           transform="translate(421.0553,102.0187)"
           id="g162"><path
             id="path164"
             style="fill:none;stroke:#fefefe;stroke-width:1.02600002;stroke-linecap:butt;stroke-linejoin:miter;stroke-miterlimit:10;stroke-dasharray:none;stroke-opacity:1"
             d="m 0,0 c -1.005,-6.767 -2.083,-13.524 -3.233,-20.268 7.995,1.508 15.925,3.368 23.758,5.57" /></g><g
           transform="translate(404.0722,84.6259)"
           id="g166"><path
             id="path168"
             style="fill:none;stroke:#fefefe;stroke-width:1.02600002;stroke-linecap:butt;stroke-linejoin:miter;stroke-miterlimit:10;stroke-dasharray:none;stroke-opacity:1"
             d="m 0,0 c -0.171,-5.95 -0.814,-11.887 -1.92,-17.735 7.27,0.649 14.521,1.502 21.743,2.559" /></g><g
           transform="translate(108.475,46.5126)"
           id="g170"><path
             id="path172"
             style="fill:#482480;fill-opacity:1;fill-rule:nonzero;stroke:none"
             d="m 0,0 c 0,4.626 65.182,8.376 145.589,8.376 80.406,0 145.588,-3.75 145.588,-8.376 0,-4.626 -65.182,-8.376 -145.588,-8.376 C 65.182,-8.376 0,-4.626 0,0" /></g><g
           transform="translate(168.1804,46.4078)"
           id="g174"><path
             id="path176"
             style="fill:#f85721;fill-opacity:1;fill-rule:nonzero;stroke:none"
             d="m 0,0 -0.858,31.353 -17.487,0.259 c 0,0 -0.907,-13.915 -3.956,-15.512 -3.048,-1.597 -20.312,-4.761 -20.419,-16.952 z" /></g><g
           transform="translate(168.0529,51.1132)"
           id="g178"><path
             id="path180"
             style="fill:#fefefe;fill-opacity:1;fill-rule:nonzero;stroke:none"
             d="m 0,0 c -3.47,-0.215 -6.941,-0.408 -10.413,-0.573 l -10.416,-0.457 -10.42,-0.358 c -3.474,-0.106 -6.948,-0.185 -10.424,-0.241 -0.284,-0.004 -0.518,0.222 -0.522,0.506 -0.004,0.278 0.213,0.508 0.489,0.522 3.471,0.171 6.944,0.319 10.417,0.44 l 10.421,0.323 10.424,0.223 c 3.475,0.063 6.951,0.097 10.428,0.109 0.136,0 0.247,-0.11 0.248,-0.247 C 0.232,0.116 0.129,0.008 0,0" /></g><g
           transform="translate(156.2507,51.0405)"
           id="g182"><path
             id="path184"
             style="fill:#fefefe;fill-opacity:1;fill-rule:nonzero;stroke:none"
             d="m 0,0 c 0.152,1.405 0.582,2.72 1.187,3.984 0.61,1.256 1.472,2.405 2.518,3.365 0.521,0.489 1.139,0.852 1.74,1.232 0.652,0.282 1.277,0.638 1.98,0.765 0.677,0.216 1.38,0.261 2.072,0.33 0.694,0.037 1.386,-0.05 2.066,-0.098 0.145,-0.01 0.254,-0.135 0.244,-0.28 C 11.798,9.167 11.695,9.066 11.568,9.055 L 11.532,9.052 C 10.218,8.939 8.915,8.843 7.724,8.376 7.112,8.196 6.563,7.88 5.997,7.607 5.48,7.246 4.947,6.912 4.503,6.461 3.555,5.631 2.796,4.591 2.168,3.472 1.549,2.354 1.049,1.122 0.706,-0.108 L 0.698,-0.134 C 0.645,-0.324 0.449,-0.435 0.259,-0.382 0.088,-0.334 -0.019,-0.17 0,0" /></g><g
           transform="translate(137.937,50.3194)"
           id="g186"><path
             id="path188"
             style="fill:#fefefe;fill-opacity:1;fill-rule:nonzero;stroke:none"
             d="m 0,0 c -0.512,1.377 -0.872,2.787 -1.196,4.205 -0.151,0.711 -0.301,1.422 -0.412,2.142 -0.116,0.719 -0.224,1.44 -0.276,2.172 -0.014,0.199 0.136,0.372 0.335,0.386 C -1.385,8.916 -1.24,8.817 -1.185,8.67 -0.929,7.982 -0.73,7.281 -0.539,6.579 -0.342,5.877 -0.185,5.167 -0.029,4.457 0.262,3.032 0.517,1.6 0.62,0.134 0.632,-0.042 0.499,-0.196 0.323,-0.208 0.178,-0.218 0.048,-0.13 0,0" /></g><g
           transform="translate(150.3969,60.4582)"
           id="g190"><path
             id="path192"
             style="fill:#fefefe;fill-opacity:1;fill-rule:nonzero;stroke:none"
             d="m 0,0 c -0.717,0.416 -1.319,0.951 -1.931,1.477 -0.576,0.561 -1.162,1.112 -1.631,1.784 -0.146,0.208 -0.095,0.494 0.113,0.64 0.158,0.11 0.362,0.107 0.514,0.008 C -2.248,3.461 -1.679,2.892 -1.1,2.333 -0.556,1.739 -0.002,1.154 0.436,0.45 0.53,0.299 0.484,0.099 0.333,0.005 0.228,-0.06 0.1,-0.058 0,0" /></g><g
           transform="translate(146.3671,57.5876)"
           id="g194"><path
             id="path196"
             style="fill:#fefefe;fill-opacity:1;fill-rule:nonzero;stroke:none"
             d="m 0,0 c -1.024,1.227 -1.949,2.531 -2.77,3.916 -0.112,0.187 -0.05,0.429 0.137,0.54 0.158,0.093 0.355,0.064 0.479,-0.059 C -1.012,3.262 0.028,2.047 0.968,0.755 1.168,0.481 1.107,0.096 0.833,-0.103 0.57,-0.294 0.206,-0.245 0,0" /></g><g
           transform="translate(142.0573,55.7649)"
           id="g198"><path
             id="path200"
             style="fill:#fefefe;fill-opacity:1;fill-rule:nonzero;stroke:none"
             d="m 0,0 c -0.446,0.724 -0.743,1.51 -1.052,2.29 -0.265,0.799 -0.541,1.592 -0.667,2.447 -0.024,0.164 0.089,0.316 0.253,0.34 0.114,0.017 0.222,-0.033 0.286,-0.12 0.508,-0.7 0.864,-1.461 1.233,-2.216 C 0.378,1.966 0.714,1.197 0.901,0.367 0.961,0.102 0.795,-0.163 0.529,-0.223 0.318,-0.27 0.108,-0.174 0,0" /></g><g
           transform="translate(161.369,67.0904)"
           id="g202"><path
             id="path204"
             style="fill:#fefefe;fill-opacity:1;fill-rule:nonzero;stroke:none"
             d="M 0,0 C 1.193,0.174 2.469,-0.691 2.682,-1.971 2.805,-2.592 2.673,-3.284 2.292,-3.834 1.916,-4.384 1.298,-4.789 0.611,-4.907 c -0.695,-0.052 -1.393,0.188 -1.893,0.629 -0.503,0.44 -0.801,1.078 -0.834,1.71 C -2.224,-1.276 -1.199,-0.124 0,0 m 0.056,-0.449 c -0.478,-0.061 -0.923,-0.324 -1.195,-0.714 -0.272,-0.39 -0.358,-0.878 -0.27,-1.317 0.188,-0.899 1.118,-1.436 1.872,-1.242 0.779,0 1.548,0.745 1.51,1.663 -0.021,0.447 -0.225,0.899 -0.584,1.211 -0.359,0.311 -0.855,0.457 -1.333,0.399" /></g><g
           transform="translate(179.5792,233.9982)"
           id="g206"><path
             id="path208"
             style="fill:#482480;fill-opacity:1;fill-rule:nonzero;stroke:none"
             d="M 0,0 -11.535,-159.327 H -32.532 L -35.99,-2.371 Z" /></g><g
           transform="translate(160.623,75.899)"
           id="g210"><path
             id="path212"
             style="fill:none;stroke:#ffffff;stroke-width:0.54000002;stroke-linecap:butt;stroke-linejoin:miter;stroke-miterlimit:10;stroke-dasharray:none;stroke-opacity:1"
             d="M 0,0 C 0,0 1.578,91.381 4.442,158.099" /></g><g
           transform="translate(212.182,99.3163)"
           id="g214"><path
             id="path216"
             style="fill:#f85721;fill-opacity:1;fill-rule:nonzero;stroke:none"
             d="m 0,0 -28.729,12.586 -7.687,-15.709 c 0,0 12.201,-6.75 12.347,-10.189 0.146,-3.439 -4.35,-20.405 6.633,-25.697 z" /></g><g
           transform="translate(207.871,101.2062)"
           id="g218"><path
             id="path220"
             style="fill:#fefefe;fill-opacity:1;fill-rule:nonzero;stroke:none"
             d="m 0,0 c -1.285,-3.231 -2.589,-6.453 -3.92,-9.664 l -4.025,-9.618 -4.118,-9.578 c -1.384,-3.188 -2.793,-6.365 -4.224,-9.533 -0.117,-0.258 -0.421,-0.373 -0.68,-0.257 -0.254,0.115 -0.369,0.41 -0.264,0.665 1.325,3.214 2.67,6.418 4.042,9.611 l 4.149,9.565 4.24,9.525 c 1.425,3.171 2.876,6.33 4.346,9.48 0.058,0.124 0.205,0.177 0.329,0.119 C -0.006,0.26 0.048,0.121 0,0" /></g><g
           transform="translate(202.9069,90.4986)"
           id="g222"><path
             id="path224"
             style="fill:#fefefe;fill-opacity:1;fill-rule:nonzero;stroke:none"
             d="m 0,0 c -1.207,0.736 -2.213,1.686 -3.098,2.771 -0.877,1.088 -1.548,2.357 -1.972,3.713 -0.22,0.679 -0.284,1.394 -0.372,2.099 0.023,0.71 -0.033,1.428 0.152,2.117 0.093,0.705 0.352,1.359 0.584,2.015 0.263,0.644 0.637,1.233 0.969,1.828 0.071,0.127 0.231,0.172 0.357,0.101 0.115,-0.064 0.163,-0.201 0.119,-0.32 L -3.274,14.29 C -3.732,13.053 -4.201,11.834 -4.285,10.557 -4.383,9.927 -4.331,9.295 -4.326,8.667 -4.219,8.045 -4.144,7.421 -3.926,6.827 -3.579,5.616 -2.962,4.486 -2.217,3.441 -1.47,2.404 -0.568,1.427 0.399,0.592 L 0.419,0.575 C 0.568,0.446 0.585,0.22 0.456,0.071 0.34,-0.063 0.146,-0.089 0,0" /></g><g
           transform="translate(195.754,73.6243)"
           id="g226"><path
             id="path228"
             style="fill:#fefefe;fill-opacity:1;fill-rule:nonzero;stroke:none"
             d="m 0,0 c -1.464,0.124 -2.893,0.399 -4.313,0.71 -0.708,0.167 -1.416,0.334 -2.114,0.54 -0.7,0.202 -1.398,0.411 -2.083,0.676 -0.186,0.073 -0.278,0.282 -0.206,0.468 0.06,0.153 0.212,0.242 0.367,0.229 0.732,-0.062 1.451,-0.18 2.168,-0.307 C -5.462,2.195 -4.753,2.035 -4.044,1.873 -2.631,1.529 -1.227,1.149 0.143,0.618 0.308,0.554 0.39,0.368 0.326,0.203 0.273,0.068 0.138,-0.012 0,0" /></g><g
           transform="translate(191.8923,89.2168)"
           id="g230"><path
             id="path232"
             style="fill:#fefefe;fill-opacity:1;fill-rule:nonzero;stroke:none"
             d="m 0,0 c -0.682,-0.471 -1.423,-0.788 -2.158,-1.117 -0.754,-0.282 -1.503,-0.578 -2.31,-0.716 -0.251,-0.043 -0.488,0.125 -0.531,0.375 -0.032,0.191 0.058,0.374 0.212,0.469 0.698,0.43 1.455,0.703 2.207,0.988 0.77,0.239 1.535,0.491 2.359,0.587 C -0.044,0.607 0.116,0.48 0.137,0.303 0.151,0.181 0.095,0.066 0,0" /></g><g
           transform="translate(192.7719,84.3479)"
           id="g234"><path
             id="path236"
             style="fill:#fefefe;fill-opacity:1;fill-rule:nonzero;stroke:none"
             d="m 0,0 c -1.546,-0.403 -3.12,-0.684 -4.723,-0.837 -0.217,-0.021 -0.409,0.138 -0.43,0.354 -0.018,0.183 0.093,0.349 0.258,0.408 1.513,0.55 3.055,0.973 4.625,1.273 C 0.063,1.261 0.385,1.043 0.448,0.71 0.509,0.391 0.309,0.081 0,0" /></g><g
           transform="translate(192.5839,79.6722)"
           id="g238"><path
             id="path240"
             style="fill:#fefefe;fill-opacity:1;fill-rule:nonzero;stroke:none"
             d="m 0,0 c -0.846,-0.095 -1.682,-0.029 -2.52,0.024 -0.835,0.101 -1.671,0.189 -2.498,0.44 -0.158,0.048 -0.248,0.215 -0.2,0.374 0.034,0.11 0.125,0.187 0.231,0.207 0.849,0.161 1.689,0.16 2.531,0.172 C -1.618,1.18 -0.779,1.156 0.052,0.972 0.318,0.913 0.486,0.649 0.427,0.383 0.38,0.172 0.203,0.023 0,0" /></g><g
           transform="translate(190.5688,101.9692)"
           id="g242"><path
             id="path244"
             style="fill:#fefefe;fill-opacity:1;fill-rule:nonzero;stroke:none"
             d="M 0,0 C 0.352,1.153 1.678,1.939 2.926,1.586 3.54,1.433 4.11,1.018 4.446,0.44 4.782,-0.135 4.886,-0.867 4.699,-1.539 4.45,-2.189 3.936,-2.719 3.324,-2.983 2.712,-3.251 2.007,-3.249 1.421,-3.009 0.207,-2.555 -0.399,-1.137 0,0 M 0.43,-0.141 C 0.282,-0.599 0.331,-1.114 0.566,-1.526 0.804,-1.938 1.208,-2.225 1.643,-2.332 2.536,-2.545 3.418,-1.932 3.564,-1.167 3.896,-0.463 3.55,0.55 2.704,0.908 2.29,1.079 1.795,1.087 1.359,0.895 0.925,0.702 0.582,0.317 0.43,-0.141" /></g><g
           transform="translate(112.7646,233.9982)"
           id="g246"><path
             id="path248"
             style="fill:#8242e8;fill-opacity:1;fill-rule:nonzero;stroke:none"
             d="m 0,0 -30.103,-72.689 c 0,0 -7.343,-21.292 15.051,-32.306 22.394,-11.013 82.122,-36.746 82.122,-36.746 l 8.848,18.662 -67.842,40.846 32.529,72.741 z" /></g><g
           transform="translate(185.0794,103.319)"
           id="g250"><path
             id="path252"
             style="fill:none;stroke:#ffffff;stroke-width:0.54000002;stroke-linecap:butt;stroke-linejoin:miter;stroke-miterlimit:10;stroke-dasharray:none;stroke-opacity:1"
             d="m 0,0 c 0,0 -76.704,41.967 -77.761,46.193 -2.468,9.871 20.712,60.517 29.367,79.463" /></g><g
           transform="translate(185.9149,336.376)"
           id="g254"><path
             id="path256"
             style="fill:#03102a;fill-opacity:1;fill-rule:nonzero;stroke:none"
             d="m 0,0 c 1.055,0.579 4.656,2.236 5.383,4.735 0.729,2.499 -1.422,4.064 -0.201,6.106 1.22,2.042 4.082,7.568 -3.703,9.837 -7.784,2.268 -6.798,-1.147 -9.489,2.139 -2.692,3.287 -4.718,4.92 -7.325,3.49 -2.606,-1.43 -1.091,-6.251 -2.533,-5.831 -1.441,0.42 -1.69,2.787 -4.42,1.288 -2.73,-1.498 0.195,-3.445 -1.232,-4.228 C -24.947,16.753 -27.742,11.222 -24.2,7.079 -23.098,5.791 -1.055,-0.579 0,0" /></g><g
           transform="translate(187.4471,334.0097)"
           id="g258"><path
             id="path260"
             style="fill:#e8a171;fill-opacity:1;fill-rule:nonzero;stroke:none"
             d="m 0,0 c 0.001,0.976 -0.536,1.895 -1.549,2.353 0.666,1.766 1.268,3.754 1.735,6.029 0.305,1.488 0.462,3.027 0.277,4.534 -0.575,4.7 -3.357,8.534 -8.057,9.924 -6.474,1.914 -11.476,-0.422 -15.488,-6.603 -1.264,-1.947 -2.177,-4.313 -2.763,-6.777 -0.868,0.178 -1.649,-0.058 -2.221,-0.538 -1.466,-1.231 -0.857,-3.651 0.936,-4.321 0.172,-0.064 0.358,-0.134 0.548,-0.204 -0.195,-3.427 0.238,-6.625 1.278,-8.714 l -7.25,-18.918 c -0.938,-2.448 -0.223,-5.26 1.834,-6.886 4.971,-3.93 10.059,-4.02 13.312,-3.474 2.041,0.343 3.652,1.909 4.039,3.942 l 3.95,20.707 c 0,0 2.926,1.838 5.71,6.686 l 0.491,-0.105 C -1.602,-2.71 -0.002,-1.653 0,0" /></g><g
           transform="translate(162.1434,329.6922)"
           id="g262"><path
             id="path264"
             style="fill:#d4653a;fill-opacity:1;fill-rule:nonzero;stroke:none"
             d="M 0,0 C 3.275,-4.791 7.243,-7.886 15.884,-4.628 15.445,-7.174 -3.874,-17.299 0,0 Z" /></g><g
           transform="translate(185.0468,332.7448)"
           id="g266"><path
             id="path268"
             style="fill:#ea7e7c;fill-opacity:1;fill-rule:nonzero;stroke:none"
             d="M 0,0 C 0.251,0.396 0.563,0.679 0.723,1.007 0.828,1.156 0.863,1.301 0.856,1.456 0.854,1.621 0.736,1.792 0.628,2.005 0.852,1.951 1.091,1.832 1.212,1.567 1.338,1.3 1.256,0.991 1.145,0.77 0.861,0.348 0.474,0.069 0,0" /></g><g
           transform="translate(160.4805,340.0757)"
           id="g270"><path
             id="path272"
             style="fill:#ea7e7c;fill-opacity:1;fill-rule:nonzero;stroke:none"
             d="m 0,0 c -0.36,0.317 -0.533,0.761 -0.541,1.27 0.028,0.245 0.128,0.55 0.378,0.704 C 0.084,2.13 0.349,2.1 0.566,2.023 0.359,1.903 0.167,1.825 0.076,1.688 -0.015,1.562 -0.064,1.421 -0.058,1.238 -0.102,0.876 0.005,0.469 0,0" /></g><g
           transform="translate(171.8003,358.4246)"
           id="g274"><path
             id="path276"
             style="fill:#03102a;fill-opacity:1;fill-rule:nonzero;stroke:none"
             d="m 0,0 c -4.816,-1.474 -10.633,-6.411 -10.489,-10.939 0.293,-1.05 0.455,-2.349 0.249,-3.994 0,0 2.139,6.283 4.489,7.123 2.275,0.813 3.389,2.225 5.079,4.726 0,0 5.075,0.443 7.669,-4.285 3.781,-6.89 8.526,-5.553 8.526,-5.553 0,0 -3.519,-7.144 -1.408,-9.127 C 23.162,-3.969 7.067,2.163 0,0" /></g><g
           transform="translate(167.3244,340.0271)"
           id="g278"><path
             id="path280"
             style="fill:#e17f57;fill-opacity:1;fill-rule:nonzero;stroke:none"
             d="M 0,0 C 1.567,-0.549 2.393,-2.264 1.845,-3.831 1.296,-5.399 -0.419,-6.225 -1.986,-5.676 -3.554,-5.128 -4.38,-3.412 -3.831,-1.845 -3.283,-0.278 -1.567,0.548 0,0" /></g><g
           transform="translate(179.3273,336.1693)"
           id="g282"><path
             id="path284"
             style="fill:#e17f57;fill-opacity:1;fill-rule:nonzero;stroke:none"
             d="M 0,0 C 1.567,-0.549 2.393,-2.264 1.845,-3.831 1.296,-5.399 -0.419,-6.225 -1.986,-5.676 -3.554,-5.128 -4.38,-3.412 -3.831,-1.845 -3.283,-0.278 -1.567,0.548 0,0" /></g><g
           transform="translate(166.4609,343.8717)"
           id="g286"><path
             id="path288"
             style="fill:#000000;fill-opacity:1;fill-rule:nonzero;stroke:none"
             d="M 0,0 C -0.652,-0.204 1.329,0.804 2.119,0.767 2.909,0.729 3.721,0.363 3.689,-0.32 3.689,-0.32 1.566,0.49 0,0" /></g><g
           transform="translate(181.7561,339.7471)"
           id="g290"><path
             id="path292"
             style="fill:#000000;fill-opacity:1;fill-rule:nonzero;stroke:none"
             d="M 0,0 C 0.461,-0.504 -0.744,1.363 -1.446,1.728 -2.148,2.093 -3.034,2.184 -3.349,1.578 -3.349,1.578 -1.108,1.211 0,0" /></g><g
           transform="translate(172.6621,340.3613)"
           id="g294"><path
             id="path296"
             style="fill:none;stroke:#222b45;stroke-width:0.48500001;stroke-linecap:butt;stroke-linejoin:miter;stroke-miterlimit:10;stroke-dasharray:none;stroke-opacity:1"
             d="m 0,0 c -0.68,-2.335 -3.124,-3.676 -5.459,-2.995 -2.334,0.68 -3.675,3.124 -2.995,5.458 0.68,2.335 3.124,3.676 5.459,2.995 C -0.661,4.778 0.68,2.335 0,0 Z" /></g><g
           transform="translate(182.9206,337.3722)"
           id="g298"><path
             id="path300"
             style="fill:none;stroke:#222b45;stroke-width:0.48500001;stroke-linecap:butt;stroke-linejoin:miter;stroke-miterlimit:10;stroke-dasharray:none;stroke-opacity:1"
             d="m 0,0 c -0.68,-2.335 -3.124,-3.676 -5.458,-2.995 -2.335,0.68 -3.676,3.124 -2.996,5.458 0.68,2.335 3.124,3.676 5.459,2.995 C -0.661,4.778 0.68,2.334 0,0 Z" /></g><g
           transform="translate(172.8831,342.7536)"
           id="g302"><path
             id="path304"
             style="fill:none;stroke:#222b45;stroke-width:0.48500001;stroke-linecap:butt;stroke-linejoin:miter;stroke-miterlimit:10;stroke-dasharray:none;stroke-opacity:1"
             d="M 0,0 C 0,0 1.174,0.277 2.76,-0.804" /></g><g
           transform="translate(168.735,341.2499)"
           id="g306"><path
             id="path308"
             style="fill:#000000;fill-opacity:1;fill-rule:nonzero;stroke:none"
             d="m 0,0 c -0.185,-0.688 -0.065,-1.318 0.269,-1.408 0.333,-0.09 0.754,0.395 0.939,1.083 C 1.393,0.363 1.273,0.994 0.939,1.083 0.605,1.173 0.185,0.688 0,0" /></g><g
           transform="translate(177.4511,338.7591)"
           id="g310"><path
             id="path312"
             style="fill:#000000;fill-opacity:1;fill-rule:nonzero;stroke:none"
             d="m 0,0 c -0.177,-0.657 -0.062,-1.259 0.257,-1.345 0.318,-0.086 0.72,0.377 0.897,1.034 C 1.33,0.346 1.215,0.949 0.897,1.034 0.578,1.12 0.177,0.657 0,0" /></g><g
           transform="translate(174.0715,340.7129)"
           id="g314"><path
             id="path316"
             style="fill:#d4653a;fill-opacity:1;fill-rule:nonzero;stroke:none"
             d="m 0,0 0.607,-5.71 -2.673,0.607 z" /></g><g
           transform="translate(169.6443,334.2187)"
           id="g318"><path
             id="path320"
             style="fill:#ffffff;fill-opacity:1;fill-rule:nonzero;stroke:none"
             d="m 0,0 5.048,-1.181 c 0,0 -1.886,-2.552 -3.379,-1.658 C 0.176,-1.946 0,0 0,0" /></g><g
           transform="translate(106.4123,428.7399)"
           id="g322"><path
             id="path324"
             style="fill:#316ac2;fill-opacity:1;fill-rule:nonzero;stroke:none"
             d="m 0,0 -36.486,-27.237 c -0.748,-0.558 -1.808,-0.405 -2.367,0.344 l -17.982,24.089 c -0.559,0.748 -0.405,1.808 0.343,2.367 l 36.486,27.236 c 0.749,0.559 1.808,0.405 2.367,-0.343 L 0.343,2.367 C 0.902,1.618 0.748,0.559 0,0" /></g><g
           transform="translate(104.719,430.8924)"
           id="g326"><path
             id="path328"
             style="fill:#3f89fb;fill-opacity:1;fill-rule:nonzero;stroke:none"
             d="m 0,0 -36.486,-27.237 c -0.749,-0.558 -1.808,-0.405 -2.367,0.344 l -17.982,24.089 c -0.559,0.749 -0.405,1.808 0.343,2.367 l 36.486,27.236 c 0.749,0.559 1.808,0.405 2.367,-0.343 L 0.344,2.367 C 0.902,1.618 0.748,0.559 0,0" /></g><g
           transform="translate(100.6354,430.2578)"
           id="g330"><path
             id="path332"
             style="fill:#fefefe;fill-opacity:1;fill-rule:nonzero;stroke:none"
             d="m 0,0 -29.378,-21.896 c -1.032,-0.77 -2.492,-0.558 -3.262,0.473 l -15.062,20.177 c -0.769,1.031 -0.557,2.492 0.474,3.261 l 29.378,21.897 c 1.031,0.769 2.491,0.557 3.261,-0.474 L 0.473,3.261 C 1.243,2.23 1.031,0.77 0,0" /></g><g
           transform="translate(91.4462,448.2733)"
           id="g334"><path
             id="path336"
             style="fill:#fefefe;fill-opacity:1;fill-rule:nonzero;stroke:none"
             d="m 0,0 c 1.705,-2.138 3.411,-4.275 5.116,-6.413 0.321,-0.402 0.953,0.09 0.631,0.494 C 4.041,-3.782 2.336,-1.644 0.63,0.493 0.31,0.895 -0.322,0.404 0,0" /></g><g
           transform="translate(58.4261,416.4191)"
           id="g338"><path
             id="path340"
             style="fill:#fefefe;fill-opacity:1;fill-rule:nonzero;stroke:none"
             d="M 0,0 C 1.378,-0.138 2.023,1.809 0.648,2.351 -0.719,2.89 -1.605,1.026 -0.488,0.194 -0.075,-0.114 0.409,0.524 -0.005,0.832 -0.38,1.112 -0.191,1.792 0.332,1.613 0.861,1.431 0.596,0.744 0.107,0.793 -0.406,0.845 -0.513,0.052 0,0" /></g><g
           transform="translate(85.7646,366.8781)"
           id="g342"><path
             id="path344"
             style="fill:#e8a171;fill-opacity:1;fill-rule:nonzero;stroke:none"
             d="m 0,0 c 4.878,-17.385 14.352,-41.688 14.352,-41.688 l 10.108,22.971 c 0,0 -5.507,10.976 -11.864,20.815 -0.32,6.174 -2.255,16.021 -7.72,31.773 v 0 0 l -1.099,4.3 c 0,0 -0.54,13.221 -0.999,14.109 -0.459,0.887 -1.015,-4.126 -1.015,-4.126 0,0 -0.387,4.846 -1.168,6.177 -0.622,1.059 -1.264,-5.431 -1.264,-5.431 -1.527,7.084 -1.209,6.857 -1.527,7.084 -0.824,0.587 -0.382,-7.703 -0.382,-7.703 0,0 -0.875,5.388 -1.817,5.688 -0.943,0.3 -0.398,-10.106 -0.398,-10.106 0,0 -1.654,1.78 -3.881,1.718 -0.566,-0.016 -1.002,-0.632 -1.057,-1.048 2.755,-0.876 5.476,-7.363 5.477,-7.366 0,0 -0.171,-13.285 1.627,-25.532 0.082,-0.624 0.187,-1.292 0.314,-1.999 C -1.731,6.158 -0.979,2.834 0,0" /></g><g
           transform="translate(296.7981,265.7434)"
           id="g346"><path
             id="path348"
             style="fill:#e8a171;fill-opacity:1;fill-rule:nonzero;stroke:none"
             d="m 0,0 c 0,0 8.269,0.749 7.569,1.48 -0.27,0.282 0,0 -7.229,0.498 0,0 6.331,1.564 5.194,2.028 -1.429,0.583 -6.28,0.272 -6.28,0.272 0,0 4.881,1.268 3.937,1.595 -0.944,0.328 -14.105,-1.03 -14.105,-1.03 l -4.414,0.472 v 0 0 c -16.373,3.156 -26.395,3.661 -32.55,3.095 -10.648,4.884 -22.299,8.764 -22.299,8.764 L -91.465,3.882 c 0,0 25.408,-5.899 43.312,-8.239 2.946,-0.563 6.345,-0.833 9.872,-0.91 0.717,-0.025 1.392,-0.033 2.022,-0.025 12.376,-0.027 25.499,2.043 25.499,2.043 0,0 6.813,-1.765 8.074,-4.366 0.404,0.113 0.951,0.632 0.886,1.196 -0.257,2.212 -2.255,3.595 -2.255,3.595 0,0 10.376,0.949 9.944,1.839 C 5.458,-0.095 0,0 0,0" /></g><g
           transform="translate(111.718,354.6251)"
           id="g350"><path
             id="path352"
             style="fill:#fdbc2f;fill-opacity:1;fill-rule:nonzero;stroke:none"
             d="m 0,0 c 0,0 17.242,-29.312 42.503,-39.84 26.772,-11.159 50.08,-18.105 73.609,-31.642 l -9.458,-24.822 -27.172,8.682 c 0,0 -3.439,-24.608 -6.439,-45.618 l -87.49,8.699 c 0,0 9.482,28.43 15.184,48.815 2.551,9.121 0.759,18.907 -4.828,26.554 l -21.861,29.922 z" /></g><g
           id="g354"><g
             id="g356" /><g
             id="g368"><g
               id="g366"
               clip-path="url(#clipPath360)"><g
                 id="g364"
                 transform="translate(191.1998,267.0032)"><path
                   id="path362"
                   style="fill:#fdbc2f;fill-opacity:1;fill-rule:nonzero;stroke:none"
                   d="m 0,0 1.43,21.939 c 0,0 8.527,-20.668 25.742,-30.621 z" /></g></g></g></g><g
           transform="translate(291.4344,55.1911)"
           id="g370"><path
             id="path372"
             style="fill:#482480;fill-opacity:1;fill-rule:nonzero;stroke:none"
             d="m 0,0 h -73.774 l 7.09,26.715 H -7.09 Z" /></g><g
           transform="translate(309.333,53.991)"
           id="g374"><path
             id="path376"
             style="fill:#316ac2;fill-opacity:1;fill-rule:nonzero;stroke:none"
             d="m 0,0 h -109.571 l 0.604,1.382 c 1.601,3.667 5.222,6.037 9.223,6.037 h 89.917 c 4.001,0 7.622,-2.37 9.223,-6.037 z" /></g><g
           transform="translate(366.631,77.9393)"
           id="g378"><path
             id="path380"
             style="fill:#3f89fb;fill-opacity:1;fill-rule:nonzero;stroke:none"
             d="m 0,0 h -223.954 c -3.298,0 -5.99,2.695 -5.981,5.989 l 0.403,153.516 c 0.009,3.294 2.714,5.989 6.012,5.989 H 0.435 c 3.297,0 5.989,-2.695 5.98,-5.989 L 6.012,5.989 C 6.003,2.695 3.298,0 0,0" /></g><g
           transform="translate(366.7993,77.9393)"
           id="g382"><path
             id="path384"
             style="fill:#316ac2;fill-opacity:1;fill-rule:nonzero;stroke:none"
             d="m 0,0 h -223.954 c -3.298,0 -5.989,2.695 -5.981,5.989 l 0.067,25.295 H 6.079 L 6.012,5.989 C 6.003,2.695 3.298,0 0,0" /></g></g></g><g
       id="g386"><g
         clip-path="url(#clipPath392)"
         id="g388"><g
           transform="translate(144.606,116.4816)"
           id="g394"><path
             id="path396"
             style="fill:#ffffff;fill-opacity:1;fill-rule:nonzero;stroke:none"
             d="M 0,0 0.313,119.087 H 220.53 L 220.218,0 Z" /></g></g></g><g
       id="g398"><g
         clip-path="url(#clipPath404)"
         id="g400"><g
           transform="translate(251.2336,128.9355)"
           id="g406"><path
             id="path408"
             style="fill:#3f89fb;fill-opacity:1;fill-rule:nonzero;stroke:none"
             d="m 0,0 h -87.179 c -3.205,0 -5.803,2.598 -5.803,5.803 v 79.913 c 0,3.205 2.598,5.804 5.803,5.804 H 0 c 3.205,0 5.804,-2.599 5.804,-5.804 V 5.804 C 5.804,2.598 3.205,0 0,0" /></g><g
           transform="translate(257.0372,208.1877)"
           id="g410"><path
             id="path412"
             style="fill:#316ac2;fill-opacity:1;fill-rule:nonzero;stroke:none"
             d="m 0,0 h -98.786 v 6.464 c 0,3.205 2.598,5.803 5.804,5.803 H -5.803 C -2.598,12.267 0,9.669 0,6.464 Z" /></g><g
           transform="translate(231.9921,213.9085)"
           id="g414"><path
             id="path416"
             style="fill:#ffffff;fill-opacity:1;fill-rule:nonzero;stroke:none"
             d="m 0,0 c 0,-1.554 -1.26,-2.815 -2.815,-2.815 -1.554,0 -2.815,1.261 -2.815,2.815 0,1.555 1.261,2.815 2.815,2.815 C -1.26,2.815 0,1.555 0,0" /></g><g
           transform="translate(241.6514,213.9085)"
           id="g418"><path
             id="path420"
             style="fill:#e7f3fd;fill-opacity:1;fill-rule:nonzero;stroke:none"
             d="m 0,0 c 0,-1.554 -1.26,-2.815 -2.815,-2.815 -1.554,0 -2.815,1.261 -2.815,2.815 0,1.555 1.261,2.815 2.815,2.815 C -1.26,2.815 0,1.555 0,0" /></g><g
           transform="translate(251.3106,213.9085)"
           id="g422"><path
             id="path424"
             style="fill:#cedffb;fill-opacity:1;fill-rule:nonzero;stroke:none"
             d="m 0,0 c 0,-1.554 -1.26,-2.815 -2.814,-2.815 -1.555,0 -2.815,1.261 -2.815,2.815 0,1.555 1.26,2.815 2.815,2.815 C -1.26,2.815 0,1.555 0,0" /></g><g
           transform="translate(358.5561,172.5043)"
           id="g426"><path
             id="path428"
             style="fill:#f85721;fill-opacity:1;fill-rule:nonzero;stroke:none"
             d="m 0,0 h -90.423 c -1.001,0 -1.812,0.811 -1.812,1.812 V 45.66 c 0,1.001 0.811,1.813 1.812,1.813 H 0 c 1.001,0 1.812,-0.812 1.812,-1.813 V 1.812 C 1.812,0.811 1.001,0 0,0" /></g><g
           transform="translate(325.8214,196.2406)"
           id="g430"><path
             id="path432"
             style="fill:#ffffff;fill-opacity:1;fill-rule:nonzero;stroke:none"
             d="m 0,0 c 0,-7.802 -6.325,-14.127 -14.128,-14.127 -7.802,0 -14.127,6.325 -14.127,14.127 0,7.802 6.325,14.128 14.127,14.128 C -6.325,14.128 0,7.802 0,0" /></g><g
           transform="translate(308.3211,198.0792)"
           id="g434"><path
             id="path436"
             style="fill:#f85721;fill-opacity:1;fill-rule:nonzero;stroke:none"
             d="m 0,0 v -4.5 c 0,-1.742 1.886,-2.831 3.395,-1.96 l 3.899,2.25 c 1.509,0.871 1.509,3.05 0,3.921 L 3.395,1.961 C 1.886,2.832 0,1.742 0,0" /></g><g
           transform="translate(405.4417,313.5944)"
           id="g438"><path
             id="path440"
             style="fill:#fdbc2f;fill-opacity:1;fill-rule:nonzero;stroke:none"
             d="M 0,0 5.065,5.065 H 24.14 c 3.882,0 7.03,3.147 7.03,7.03 v 1.525 c 0,3.883 -3.148,7.03 -7.03,7.03 H 7.03 C 3.147,20.65 0,17.503 0,13.62 Z" /></g><g
           transform="translate(426.4814,326.6467)"
           id="g442"><path
             id="path444"
             style="fill:#ffffff;fill-opacity:1;fill-rule:nonzero;stroke:none"
             d="m 0,0 c 0,-0.968 0.785,-1.753 1.753,-1.753 0.969,0 1.754,0.785 1.754,1.753 0,0.969 -0.785,1.753 -1.754,1.753 C 0.785,1.753 0,0.969 0,0" /></g><g
           transform="translate(420.0524,326.6467)"
           id="g446"><path
             id="path448"
             style="fill:#ffffff;fill-opacity:1;fill-rule:nonzero;stroke:none"
             d="m 0,0 c 0,-0.968 0.785,-1.753 1.753,-1.753 0.969,0 1.754,0.785 1.754,1.753 0,0.969 -0.785,1.753 -1.754,1.753 C 0.785,1.753 0,0.969 0,0" /></g><g
           transform="translate(413.6237,326.6467)"
           id="g450"><path
             id="path452"
             style="fill:#ffffff;fill-opacity:1;fill-rule:nonzero;stroke:none"
             d="m 0,0 c 0,-0.968 0.785,-1.753 1.753,-1.753 0.969,0 1.754,0.785 1.754,1.753 0,0.969 -0.785,1.753 -1.754,1.753 C 0.785,1.753 0,0.969 0,0" /></g><g
           transform="translate(437.9502,334.4076)"
           id="g454"><path
             id="path456"
             style="fill:#fb1370;fill-opacity:1;fill-rule:nonzero;stroke:none"
             d="m 0,0 c 0,-2.004 -1.624,-3.628 -3.628,-3.628 -2.004,0 -3.629,1.624 -3.629,3.628 0,2.004 1.625,3.629 3.629,3.629 C -1.624,3.629 0,2.004 0,0" /></g><g
           transform="translate(385.5334,333.7059)"
           id="g458"><path
             id="path460"
             style="fill:#482480;fill-opacity:1;fill-rule:nonzero;stroke:none"
             d="m 0,0 c 4.358,8.656 -0.422,11.83 -1.903,13.619 -3.373,4.62 -10.107,8.167 -14.767,7.766 0,0 -6.171,2.051 -11.283,-3.056 -0.812,-0.812 -14.11,-10.109 4.499,-28.62" /></g><g
           transform="translate(359.9429,351.8363)"
           id="g462"><path
             id="path464"
             style="fill:#482480;fill-opacity:1;fill-rule:nonzero;stroke:none"
             d="M 0,0 C 2.068,0.523 2.344,2.555 1.636,4.184 0.905,5.866 0.277,8.652 -2.214,7.773 -2.982,7.502 -3.599,6.894 -4.005,6.189 -4.963,4.524 -5.785,5.943 -7.002,6.564 c -1.52,0.775 -3.334,-0.292 -4.524,-1.516 -0.619,-0.638 -1.197,-1.36 -1.423,-2.219 -0.447,-1.699 0.561,-3.406 1.526,-4.874 0.815,-1.24 1.753,-2.572 3.185,-2.963 1.107,-0.302 2.278,0.031 3.377,0.362 0.975,0.294 1.966,0.595 2.814,1.159 0.848,0.564 1.548,1.439 1.651,2.452" /></g><g
           transform="translate(372.5907,354.2111)"
           id="g466"><path
             id="path468"
             style="fill:#482480;fill-opacity:1;fill-rule:nonzero;stroke:none"
             d="M 0,0 C 0.888,1.645 1.055,3.868 2.669,4.809 3.718,5.42 5.027,5.247 6.226,5.056 7.65,4.829 9.212,4.525 10.108,3.395 10.612,2.758 10.828,1.945 11.002,1.151 11.232,0.102 11.403,-1.035 10.959,-2.012 10.391,-3.262 9.002,-3.883 7.729,-4.397 7.208,-4.607 6.635,-4.821 6.1,-4.651 5.298,-4.398 4.973,-3.433 4.295,-2.937" /></g><g
           transform="translate(362.8337,335.3329)"
           id="g470"><path
             id="path472"
             style="fill:#ed7f5d;fill-opacity:1;fill-rule:nonzero;stroke:none"
             d="m 0,0 c -0.099,-0.29 -0.415,-0.441 -0.701,-0.332 -1.197,0.455 -3.54,1.56 -5.051,-1.458 -0.765,-1.528 -0.142,-3.449 1.105,-4.232 0.976,-0.613 2.488,-1.218 3.277,-1.084 0.646,-1.599 -0.423,-12.987 -1.321,-13.901 -5.535,-5.628 -6.867,-5.544 -6.867,-5.544 0,0 19.536,-30.663 20.063,-4.908 0,0 2.549,15.353 2.679,15.33 1.841,-0.325 8.771,-0.362 9.745,13.087 C 23.832,9.416 15.303,11.707 13.072,12.122 11.189,12.472 4.917,14.388 0,0" /></g><g
           transform="translate(375.9748,319.1798)"
           id="g474"><path
             id="path476"
             style="fill:#bf5433;fill-opacity:1;fill-rule:nonzero;stroke:none"
             d="M 0,0 -5.284,1.163 -4.957,0.508 C -3.977,-1.456 -1.385,-1.722 0,0 Z" /></g><g
           transform="translate(382.335,347.6061)"
           id="g478"><path
             id="path480"
             style="fill:#482480;fill-opacity:1;fill-rule:nonzero;stroke:none"
             d="m 0,0 c 1.357,-2.548 -1.549,-9.577 -7.492,-5.583 -2.123,1.427 -4.73,-4.478 -7.113,-5.456 -4.206,-1.726 -5.712,-0.786 -6.43,0.975 0,0 12.34,26.394 21.035,10.064" /></g><g
           transform="translate(381.7499,347.2016)"
           id="g482"><path
             id="path484"
             style="fill:#482480;fill-opacity:1;fill-rule:nonzero;stroke:none"
             d="m 0,0 c 0,0 0.957,-5.031 4.479,-9.082 0,0 3.257,6.649 -4.479,9.082" /></g><g
           transform="translate(361.9733,331.6508)"
           id="g486"><path
             id="path488"
             style="fill:#bf5433;fill-opacity:1;fill-rule:nonzero;stroke:none"
             d="M 0,0 C -1.566,5.164 -3.755,1.41 -3.755,1.41 Z" /></g><g
           transform="translate(374.2355,331.8058)"
           id="g490"><path
             id="path492"
             style="fill:#eb6b54;fill-opacity:1;fill-rule:nonzero;stroke:none"
             d="M 0,0 C 1.567,-0.549 2.393,-2.264 1.845,-3.831 1.296,-5.399 -0.419,-6.225 -1.986,-5.676 -3.554,-5.128 -4.38,-3.412 -3.831,-1.845 -3.283,-0.278 -1.567,0.548 0,0" /></g><g
           transform="translate(384.0948,324.7449)"
           id="g494"><path
             id="path496"
             style="fill:#eb6b54;fill-opacity:1;fill-rule:nonzero;stroke:none"
             d="m 0,0 c -1.201,0.717 -1.773,2.202 -1.293,3.573 0.37,1.058 1.671,1.592 2.699,1.78 C 1.406,5.353 1.264,1.905 0,0" /></g><g
           transform="translate(376.322,335.8996)"
           id="g498"><path
             id="path500"
             style="fill:#000000;fill-opacity:1;fill-rule:nonzero;stroke:none"
             d="M 0,0 C -0.652,-0.204 1.329,0.804 2.119,0.767 2.909,0.729 3.721,0.363 3.689,-0.32 3.689,-0.32 1.566,0.49 0,0" /></g><g
           transform="translate(385.6474,333.4035)"
           id="g502"><path
             id="path504"
             style="fill:#000000;fill-opacity:1;fill-rule:nonzero;stroke:none"
             d="M 0,0 C 0.414,-0.544 -0.033,0.914 -0.699,1.34 -1.366,1.767 -2.24,1.922 -2.608,1.347 -2.608,1.347 -0.994,1.306 0,0" /></g><g
           transform="translate(378.2472,331.2761)"
           id="g506"><path
             id="path508"
             style="fill:#000000;fill-opacity:1;fill-rule:nonzero;stroke:none"
             d="m 0,0 c -0.185,-0.688 -0.065,-1.318 0.269,-1.408 0.333,-0.09 0.754,0.395 0.939,1.083 C 1.393,0.363 1.273,0.994 0.939,1.083 0.606,1.173 0.185,0.688 0,0" /></g><g
           transform="translate(382.5062,330.3292)"
           id="g510"><path
             id="path512"
             style="fill:#000000;fill-opacity:1;fill-rule:nonzero;stroke:none"
             d="m 0,0 c -0.177,-0.657 -0.062,-1.259 0.257,-1.345 0.318,-0.086 0.72,0.377 0.897,1.034 C 1.33,0.346 1.216,0.949 0.897,1.034 0.578,1.12 0.177,0.657 0,0" /></g><g
           transform="translate(381.2728,332.6703)"
           id="g514"><path
             id="path516"
             style="fill:#bf5433;fill-opacity:1;fill-rule:nonzero;stroke:none"
             d="m 0,0 0.487,-4.579 -2.143,0.487 z" /></g><g
           transform="translate(377.9846,328.0548)"
           id="g518"><path
             id="path520"
             style="fill:#ffffff;fill-opacity:1;fill-rule:nonzero;stroke:none"
             d="m 0,0 4.579,-0.974 c 0,0 -1.656,-2.339 -3.02,-1.559 C 0.195,-1.754 0,0 0,0" /></g><g
           transform="translate(361.304,353.8103)"
           id="g522"><path
             id="path524"
             style="fill:none;stroke:#032f54;stroke-width:0.43900001;stroke-linecap:butt;stroke-linejoin:miter;stroke-miterlimit:10;stroke-dasharray:none;stroke-opacity:1"
             d="M 0,0 C 0.482,0.603 0.514,1.441 0.475,2.211 0.392,3.809 -0.003,5.551 -1.288,6.504 -2.053,7.071 -3.078,7.272 -4.001,7.037 -4.924,6.802 -5.728,6.135 -6.129,5.271 -6.353,4.788 -6.46,4.244 -6.769,3.81 -7.351,2.992 -8.458,2.787 -9.452,2.648" /></g><g
           transform="translate(381.641,358.1368)"
           id="g526"><path
             id="path528"
             style="fill:none;stroke:#032f54;stroke-width:0.43900001;stroke-linecap:butt;stroke-linejoin:miter;stroke-miterlimit:10;stroke-dasharray:none;stroke-opacity:1"
             d="M 0,0 C 1.355,-0.713 2.841,-1.586 3.23,-3.066 3.32,-3.412 3.343,-3.772 3.354,-4.129 3.371,-4.721 3.356,-5.314 3.309,-5.903 3.265,-6.454 3.187,-7.018 2.911,-7.497 2.452,-8.294 1.507,-8.712 0.589,-8.768 -0.33,-8.823 -1.236,-8.57 -2.116,-8.303" /></g><g
           transform="translate(383.138,344.936)"
           id="g530"><path
             id="path532"
             style="fill:none;stroke:#032f54;stroke-width:0.43900001;stroke-linecap:butt;stroke-linejoin:miter;stroke-miterlimit:10;stroke-dasharray:none;stroke-opacity:1"
             d="m 0,0 c 0.186,-1.539 -0.519,-3.155 -1.774,-4.066 -1.255,-0.911 -3.009,-1.08 -4.416,-0.426 -1.296,0.603 -2.221,1.797 -3.446,2.535 -1.366,0.821 -3.092,1.018 -4.608,0.525" /></g><g
           transform="translate(366.0629,339.415)"
           id="g534"><path
             id="path536"
             style="fill:none;stroke:#032f54;stroke-width:0.43900001;stroke-linecap:butt;stroke-linejoin:miter;stroke-miterlimit:10;stroke-dasharray:none;stroke-opacity:1"
             d="m 0,0 c -1.108,-0.524 -2.237,-1.107 -3.01,-2.058 -0.774,-0.951 -1.104,-2.369 -0.471,-3.419 0.439,-0.727 1.233,-1.144 1.913,-1.652 0.681,-0.507 1.32,-1.267 1.196,-2.107 -0.162,-1.093 -1.426,-1.57 -2.279,-2.274 -1.1,-0.908 -1.602,-2.481 -1.231,-3.858 0.209,-0.775 0.71,-1.509 1.452,-1.817 0.741,-0.308 1.72,-0.077 2.111,0.624" /></g><g
           transform="translate(371.2078,71.555)"
           id="g538"><path
             id="path540"
             style="fill:#ed7f5d;fill-opacity:1;fill-rule:nonzero;stroke:none"
             d="m 0,0 2.402,-20.732 c 0,0 5.646,-6.216 8.601,-2.598 1.478,1.809 6.19,3.861 6.899,4.928 -1.613,0.896 -5.465,3.494 -5.465,3.494 l 0.896,15.32 z" /></g><g
           transform="translate(378.9434,71.0276)"
           id="g542"><path
             id="path544"
             style="fill:#bf5433;fill-opacity:1;fill-rule:nonzero;stroke:none"
             d="m 0,0 -0.227,-4.346 c 0,0 -5.106,-16.754 -5.554,-14.783 l -1.631,18.107 z" /></g><g
           transform="translate(383.8238,57.0053)"
           id="g546"><path
             id="path548"
             style="fill:#fb1370;fill-opacity:1;fill-rule:nonzero;stroke:none"
             d="m 0,0 14.166,-9.235 c 0.603,-0.448 0.172,-1.204 -0.691,-1.211 0,0 -25.513,0.146 -25.55,0.519 -0.228,2.313 0.871,7.157 0.871,7.493 0,1.209 3.695,-2.301 6.203,-3.018 C -3.658,-4.988 -0.403,0.299 0,0" /></g><g
           transform="translate(315.9574,71.2505)"
           id="g550"><path
             id="path552"
             style="fill:#ed7f5d;fill-opacity:1;fill-rule:nonzero;stroke:none"
             d="m 0,0 -4.972,-18.546 c 0,0 5.913,-8.097 8.869,-4.479 1.478,1.809 6.19,3.86 6.899,4.927 -1.613,0.896 -5.465,3.494 -5.465,3.494 l 5.554,14.873 z" /></g><g
           transform="translate(320.1234,71.5194)"
           id="g554"><path
             id="path556"
             style="fill:#bf5433;fill-opacity:1;fill-rule:nonzero;stroke:none"
             d="m 0,0 -0.269,-1.613 c 0,0 -8.601,-19.979 -9.049,-18.008 L -6.182,0 Z" /></g><g
           transform="translate(321.4674,57.0053)"
           id="g558"><path
             id="path560"
             style="fill:#fb1370;fill-opacity:1;fill-rule:nonzero;stroke:none"
             d="m 0,0 14.166,-9.235 c 0.603,-0.448 0.173,-1.204 -0.691,-1.211 0,0 -27.549,0.397 -27.586,0.77 1.21,2.957 2.593,9.181 4.071,11.6 0.161,0.263 2.018,-4.145 4.527,-4.861 C -4.17,-2.473 -0.403,0.299 0,0" /></g><g
           transform="translate(347.2213,257.8253)"
           id="g562"><path
             id="path564"
             style="fill:#482480;fill-opacity:1;fill-rule:nonzero;stroke:none"
             d="m 0,0 c -5.411,-9.566 -8.271,-16.572 -11.38,-28.735 -3.606,-14.104 -30.499,-133.409 -32.2,-159.064 4.445,-1.071 32.137,-0.355 34.946,-0.199 5.375,25.367 22.225,115.736 26.056,131.866 0.588,2.48 4.764,1.87 4.121,-0.596 -5.718,-21.923 -9.43,-103.796 -11.581,-131.749 7.257,-0.403 27.633,0.71 30.325,1.048 2.927,31.593 17.862,149.438 -5.595,188.207 C 23.966,2.257 10.876,0.324 0,0" /></g><g
           id="g566"><g
             id="g568" /><g
             id="g596"><g
               style="opacity:0.47999603"
               id="g594"
               clip-path="url(#clipPath572)"><g
                 id="g576"
                 transform="translate(351.5218,135.7403)"><path
                   id="path574"
                   style="fill:#8242e8;fill-opacity:1;fill-rule:nonzero;stroke:none"
                   d="m 0,0 c 0.948,4.913 1.894,9.814 2.822,14.605 -13.966,-0.753 -16.023,-14.972 -14.704,-26.515 0.758,-6.633 2.521,-14.144 5.535,-20.918 1.868,9.611 3.904,20.169 5.942,30.729 C -0.447,-1.387 -0.324,-0.667 0,0" /></g><g
                 id="g580"
                 transform="translate(389.9191,205.324)"><path
                   id="path578"
                   style="fill:#8242e8;fill-opacity:1;fill-rule:nonzero;stroke:none"
                   d="M 0,0 C 1.326,-4.252 2.82,-8.465 4.775,-12.447 4.318,3.028 2.995,17.685 0.35,30.035 -7.761,24.778 -2.191,7.028 0,0" /></g><g
                 id="g584"
                 transform="translate(372.7397,159.6376)"><path
                   id="path582"
                   style="fill:#8242e8;fill-opacity:1;fill-rule:nonzero;stroke:none"
                   d="M 0,0 C 2.669,8.949 -1.162,16.931 -6.991,23.435 -8.324,12.552 -9.519,-1.121 -10.584,-15.374 -5.826,-11.135 -1.808,-6.062 0,0" /></g><g
                 id="g588"
                 transform="translate(375.4829,105.5603)"><path
                   id="path586"
                   style="fill:#8242e8;fill-opacity:1;fill-rule:nonzero;stroke:none"
                   d="M 0,0 C 0.34,-10.482 5.692,-20.561 12.71,-28.198 13.926,-16.206 15.866,2.016 17.346,22.59 6.606,19.352 -0.377,11.605 0,0" /></g><g
                 id="g592"
                 transform="translate(341.1017,183.8759)"><path
                   id="path590"
                   style="fill:#8242e8;fill-opacity:1;fill-rule:nonzero;stroke:none"
                   d="M 0,0 C 1.732,7.229 1.91,15.82 0.013,23.023 -1.322,28.09 -3.979,32.475 -7.409,36.245 -10.432,23.275 -15.738,-0.314 -21.066,-25.252 -11.005,-19.714 -2.826,-11.796 0,0" /></g></g></g></g><g
           transform="translate(380.5131,254.4028)"
           id="g598"><path
             id="path600"
             style="fill:none;stroke:#ffffff;stroke-width:0.41800001;stroke-linecap:butt;stroke-linejoin:miter;stroke-miterlimit:10;stroke-dasharray:none;stroke-opacity:1"
             d="m 0,0 c 0,0 9.554,-23.644 9.554,-57.014 0,-33.37 -9.735,-117.503 -9.735,-117.503" /></g><g
           transform="translate(314.9483,82.9038)"
           id="g602"><path
             id="path604"
             style="fill:none;stroke:#ffffff;stroke-width:0.41800001;stroke-linecap:butt;stroke-linejoin:miter;stroke-miterlimit:10;stroke-dasharray:none;stroke-opacity:1"
             d="M 0,0 37.562,172.588" /></g><g
           transform="translate(359.2001,254.5584)"
           id="g606"><path
             id="path608"
             style="fill:none;stroke:#ffffff;stroke-width:0.41800001;stroke-linecap:butt;stroke-linejoin:miter;stroke-miterlimit:10;stroke-dasharray:none;stroke-opacity:1"
             d="M 0,0 C 0,0 -0.325,-30.566 -14.044,-28.156" /></g><g
           id="g610"><g
             id="g612" /><g
             id="g624"><g
               style="opacity:0.21000701"
               id="g622"
               clip-path="url(#clipPath616)"><g
                 id="g620"
                 transform="translate(381.7577,253.7805)"><path
                   id="path618"
                   style="fill:#000000;fill-opacity:1;fill-rule:nonzero;stroke:none"
                   d="m 0,0 -44.162,-33.254 c 0,0 -1.844,17.946 6.002,32.675 z" /></g></g></g></g><g
           transform="translate(390.894,225.6165)"
           id="g626"><path
             id="path628"
             style="fill:none;stroke:#ffffff;stroke-width:0.41800001;stroke-linecap:butt;stroke-linejoin:miter;stroke-miterlimit:10;stroke-dasharray:none;stroke-opacity:1"
             d="M 0,0 C -13.719,-2.41 -14.737,27.386 -14.737,27.386" /></g><g
           transform="translate(358.7051,80.8919)"
           id="g630"><path
             id="path632"
             style="fill:none;stroke:#ffffff;stroke-width:0.41800001;stroke-linecap:butt;stroke-linejoin:miter;stroke-miterlimit:10;stroke-dasharray:none;stroke-opacity:1"
             d="M 0,0 29.171,-1.006" /></g><g
           transform="translate(304.4825,82.973)"
           id="g634"><path
             id="path636"
             style="fill:none;stroke:#ffffff;stroke-width:0.41800001;stroke-linecap:butt;stroke-linejoin:miter;stroke-miterlimit:10;stroke-dasharray:none;stroke-opacity:1"
             d="M 0,0 37.122,-1.578" /></g><g
           transform="translate(403.7133,276.7459)"
           id="g638"><path
             id="path640"
             style="fill:#ed7f5d;fill-opacity:1;fill-rule:nonzero;stroke:none"
             d="m 0,0 c 0.14,-0.59 13.884,13.885 13.884,13.885 0,0 12.24,16.184 13.094,15.259 1.237,-1.34 -3.505,-8.557 -3.505,-8.557 0,0 0.309,-0.825 1.237,-1.238 0.928,-0.412 1.443,-1.03 1.752,-2.268 0.31,-1.237 1.547,-1.959 1.753,-2.68 0.206,-0.722 -4.399,-6.152 -7.011,-8.042 0,0 -4.449,-6.171 -10.413,-13.626" /></g><g
           transform="translate(418.0098,290.7343)"
           id="g642"><path
             id="path644"
             style="fill:#ed7f5d;fill-opacity:1;fill-rule:nonzero;stroke:none"
             d="M 0,0 C 0,0 2.474,7.011 3.505,6.804 4.536,6.598 9.073,4.64 8.97,2.887 8.867,1.134 4.949,2.577 4.949,2.577 c 0,0 0.722,-3.917 -1.237,-4.433 C 1.753,-2.371 0,0 0,0" /></g><g
           transform="translate(424.006,292.8577)"
           id="g646"><path
             id="path648"
             style="fill:#bf5433;fill-opacity:1;fill-rule:nonzero;stroke:none"
             d="m 0,0 c 0,0 -0.128,-1.047 1.315,-1.356 0,0 0.323,-2.214 2.179,-1.802 0,0 -0.328,-1.071 0.806,-1.277 0,0 -5.022,-5.359 -4.3,4.435" /></g><g
           transform="translate(423.1713,297.0394)"
           id="g650"><path
             id="path652"
             style="fill:#bf5433;fill-opacity:1;fill-rule:nonzero;stroke:none"
             d="M 0,0 C 0.989,-0.321 1.947,-0.725 2.902,-1.141 3.389,-1.357 3.834,-1.525 4.335,-1.873 4.568,-2.053 4.828,-2.277 4.954,-2.669 5.09,-3.065 4.907,-3.544 4.65,-3.776 4.128,-4.229 3.6,-4.374 3.042,-4.493 2.491,-4.588 1.948,-4.617 1.422,-4.568 c -0.259,0.025 -0.56,0.044 -0.568,0.023 -0.033,0.11 -0.006,-0.26 0.029,-0.5 0.031,-0.519 0.09,-1.033 0.098,-1.557 L 0.935,-6.61 0.642,-5.09 0.569,-4.71 c -0.027,0.121 -0.035,0.289 0.082,0.39 0.241,0.178 0.523,0.095 0.772,0.113 1.008,0.002 2.12,0.088 2.898,0.759 0.182,0.168 0.275,0.423 0.205,0.659 -0.067,0.235 -0.253,0.426 -0.45,0.58 -0.404,0.308 -0.896,0.499 -1.345,0.748 l -2.751,1.419 z" /></g><g
           transform="translate(427.306,297.5231)"
           id="g654"><path
             id="path656"
             style="fill:#bf5433;fill-opacity:1;fill-rule:nonzero;stroke:none"
             d="M 0,0 C -0.011,-0.245 -0.088,-0.43 -0.173,-0.607 -0.26,-0.784 -0.395,-0.915 -0.504,-1.07 -0.661,-1.182 -0.79,-1.32 -0.97,-1.41 -1.15,-1.502 -1.339,-1.584 -1.592,-1.608 l -0.034,0.031 c 0.511,0.554 1.042,1.09 1.592,1.608 z" /></g><g
           transform="translate(429.4003,294.9209)"
           id="g658"><path
             id="path660"
             style="fill:#bf5433;fill-opacity:1;fill-rule:nonzero;stroke:none"
             d="m 0,0 c -0.229,-0.518 -0.554,-0.972 -0.91,-1.398 -0.357,-0.426 -0.781,-0.787 -1.2,-1.15 -0.467,-0.314 -0.892,-0.634 -1.435,-0.875 -0.28,-0.111 -0.597,-0.202 -0.929,-0.158 -0.312,0.063 -0.63,0.239 -0.728,0.529 l 0.038,0.027 c 0.347,-0.44 1.009,-0.356 1.445,-0.082 0.462,0.273 0.899,0.596 1.324,0.926 0.858,0.655 1.65,1.396 2.36,2.211 z" /></g><g
           transform="translate(425.3722,291.5638)"
           id="g662"><path
             id="path664"
             style="fill:#bf5433;fill-opacity:1;fill-rule:nonzero;stroke:none"
             d="m 0,0 c 0.264,-0.569 0.542,-1.184 0.967,-1.332 0.395,-0.165 0.89,0.035 1.333,0.391 0.471,0.303 0.889,0.768 1.354,1.175 0.462,0.415 0.924,0.835 1.441,1.219 L 5.131,1.424 C 4.743,0.934 4.338,0.457 3.921,-0.008 3.499,-0.469 3.08,-0.939 2.572,-1.317 2.084,-1.672 1.386,-1.989 0.79,-1.648 0.212,-1.3 0.07,-0.602 -0.046,-0.009 Z" /></g><g
           transform="translate(427.6577,289.9004)"
           id="g666"><path
             id="path668"
             style="fill:#bf5433;fill-opacity:1;fill-rule:nonzero;stroke:none"
             d="m 0,0 c 0.146,-0.325 0.325,-0.608 0.515,-0.75 0.126,-0.066 0.119,-0.065 0.27,-0.093 0.123,-0.019 0.253,-0.015 0.386,0.005 0.275,-0.012 0.541,0.089 0.92,0.139 0.181,0.012 0.322,0.011 0.451,0.046 0.149,0.01 0.295,0.099 0.474,0.162 L 3.051,-0.522 C 2.844,-0.794 2.523,-0.985 2.19,-1.051 1.871,-1.144 1.548,-1.283 1.199,-1.299 0.868,-1.307 0.467,-1.269 0.242,-0.973 0.029,-0.693 -0.055,-0.34 -0.047,0.001 Z" /></g><g
           transform="translate(375.5245,309.2392)"
           id="g670"><path
             id="path672"
             style="fill:#3f89fb;fill-opacity:1;fill-rule:nonzero;stroke:none"
             d="m 0,0 c 0,0 9.617,0.732 12.479,-5.118 2.863,-5.85 8.722,-28.331 8.722,-28.331 l 19.083,15.052 9.407,-15.589 c 0,0 -27.722,-31.269 -34.941,-29.028 C 7.53,-60.774 -0.083,-7.976 0,0" /></g><g
           transform="translate(387.8806,304.3484)"
           id="g674"><path
             id="path676"
             style="fill:#ed7f5d;fill-opacity:1;fill-rule:nonzero;stroke:none"
             d="m 0,0 c -3,5.599 -12.356,4.891 -12.356,4.891 l 5.383,-8.493 C -4.653,-2.394 -2.327,-1.197 0,0" /></g><g
           transform="translate(374.5746,310.7736)"
           id="g678"><path
             id="path680"
             style="fill:#3f89fb;fill-opacity:1;fill-rule:nonzero;stroke:none"
             d="m 0,0 c 1.461,-1.461 14.172,-25.63 14.475,-33.06 0.336,-8.215 -1.509,-28.165 -1.509,-28.165 0,0 -43.086,-0.335 -43.924,-0.671 -2.419,22.04 -1.918,50.729 3.995,54.224 0,0 9.718,9.864 11.399,10.887 0,0 14.395,-8.33 15.564,-3.215" /></g><g
           transform="translate(350.4858,299.9349)"
           id="g682"><path
             id="path684"
             style="fill:#316ac2;fill-opacity:1;fill-rule:nonzero;stroke:none"
             d="m 0,0 c -1.066,-1.069 -2.874,3.166 -2.874,3.166 -5.913,-3.494 -6.414,-32.183 -3.995,-54.223 0.838,0.335 43.924,0.671 43.924,0.671 0,0 0.369,3.997 0.747,9.146 C 24.846,-25.833 13.166,-15.229 0,0" /></g><g
           transform="translate(396.1975,274.7552)"
           id="g686"><path
             id="path688"
             style="fill:#ffffff;fill-opacity:1;fill-rule:nonzero;stroke:none"
             d="m 0,0 1.475,21.205 c 0.067,0.967 0.561,1.853 1.347,2.419 l 10.588,7.622 c 1.312,0.952 2.747,-0.302 2.563,-1.912 L 14.333,11.823 C 14.229,10.661 13.661,9.602 12.766,8.899 L 1.599,-0.16 C 1.247,-0.436 -0.037,-0.457 0,0" /></g><g
           transform="translate(397.4724,274.2814)"
           id="g690"><path
             id="path692"
             style="fill:#fdbc2f;fill-opacity:1;fill-rule:nonzero;stroke:none"
             d="m 0,0 1.535,22.014 c 0.059,0.74 0.435,1.417 1.032,1.858 l 10.641,7.534 c 0.798,0.565 1.706,-0.268 1.646,-1.245 L 13.116,11.977 C 12.958,10.739 12.786,10.136 11.82,9.344 8.45,6.581 -0.029,-0.359 0,0" /></g><g
           transform="translate(409.8886,301.7657)"
           id="g694"><path
             id="path696"
             style="fill:#23215f;fill-opacity:1;fill-rule:nonzero;stroke:none"
             d="m 0,0 c -0.07,-0.302 0.043,-0.586 0.251,-0.634 0.208,-0.048 0.434,0.158 0.503,0.46 C 0.824,0.128 0.712,0.412 0.503,0.46 0.295,0.508 0.07,0.302 0,0" /></g><g
           transform="translate(409.7321,301.8018)"
           id="g698"><path
             id="path700"
             style="fill:none;stroke:#23215f;stroke-width:0.058;stroke-linecap:butt;stroke-linejoin:miter;stroke-miterlimit:10;stroke-dasharray:none;stroke-opacity:1"
             d="M 0,0 C -0.099,-0.427 0.061,-0.829 0.355,-0.897 0.65,-0.965 0.969,-0.674 1.068,-0.246 1.166,0.181 1.007,0.583 0.712,0.651 0.418,0.719 0.099,0.427 0,0 Z" /></g><g
           transform="translate(398.3916,295.1398)"
           id="g702"><path
             id="path704"
             style="fill:none;stroke:#385887;stroke-width:0.116;stroke-linecap:butt;stroke-linejoin:miter;stroke-miterlimit:10;stroke-dasharray:none;stroke-opacity:1"
             d="M 0,0 -0.039,0.02 C -0.234,0.122 -0.47,-0.011 -0.484,-0.231 l -0.173,-2.682 c -0.008,-0.121 0.057,-0.235 0.165,-0.291 l 0.002,-10e-4 c 0.193,-0.099 0.426,0.031 0.443,0.248 l 0.21,2.662 C 0.173,-0.173 0.109,-0.057 0,0 Z" /></g><g
           transform="translate(398.1294,291.3162)"
           id="g706"><path
             id="path708"
             style="fill:none;stroke:#385887;stroke-width:0.116;stroke-linecap:butt;stroke-linejoin:miter;stroke-miterlimit:10;stroke-dasharray:none;stroke-opacity:1"
             d="M 0,0 -0.039,0.02 C -0.234,0.122 -0.47,-0.011 -0.484,-0.231 l -0.173,-2.682 c -0.008,-0.121 0.057,-0.235 0.165,-0.291 l 0.002,-10e-4 c 0.193,-0.099 0.426,0.031 0.443,0.248 l 0.21,2.662 C 0.173,-0.172 0.109,-0.057 0,0 Z" /></g><g
           transform="translate(397.0737,288.239)"
           id="g710"><path
             id="path712"
             style="fill:#030f2a;fill-opacity:1;fill-rule:nonzero;stroke:none"
             d="m 0,0 1.551,-2.176 -2.136,-3.14 z" /></g><g
           transform="translate(391.1491,261.273)"
           id="g714"><path
             id="path716"
             style="fill:#ed7f5d;fill-opacity:1;fill-rule:nonzero;stroke:none"
             d="m 0,0 c 11.172,12.187 16.996,21.069 18.129,22.661 0.647,0.911 2.308,3.854 2.032,4.222 -0.631,0.84 -4.05,-5 -4.008,-4.656 0.042,0.343 4.608,6.613 4.116,7.303 -0.74,1.039 -5.707,-6.043 -5.796,-6.159 -1.353,-1.747 5.016,6.592 4.68,7.428 -0.336,0.836 -3.504,-2.767 -3.618,-2.892 0,0 -2.53,-3.246 -2.805,-3.111 -0.276,0.134 3.391,8.549 2.425,8.48 -0.966,-0.07 -4.233,-5.878 -5.077,-7.147 C 9.234,24.86 7.577,23.433 6.94,23.385 6.402,23.344 5.448,25.496 5.699,26.767 c 0,0 -1.992,-3.376 -2.253,-5.883 C 3.309,19.565 3.411,17.952 3.411,17.952 l -9.477,-10 z" /></g><g
           transform="translate(357.0858,295.6808)"
           id="g718"><path
             id="path720"
             style="fill:#3f89fb;fill-opacity:1;fill-rule:nonzero;stroke:none"
             d="m 0,0 c 0,0 -5.662,11.237 -10.254,6.724 -7.769,-7.637 -3.515,-34.757 19.265,-58.576 7.398,-7.736 36.349,25.607 36.349,25.607 L 34.114,-15.222 18.026,-31.27 Z" /></g><g
           transform="translate(356.8567,296.1122)"
           id="g722"><path
             id="path724"
             style="fill:#ed7f5d;fill-opacity:1;fill-rule:nonzero;stroke:none"
             d="m 0,0 c -1.098,2.012 -5.976,10.272 -10.025,6.292 -3.042,-2.99 -4.23,-8.974 -3.195,-16.57 C -8.914,-6.722 -4.5,-3.304 0,0" /></g><g
           transform="translate(388.0346,54.3176)"
           id="g726"><path
             id="path728"
             style="fill:none;stroke:#fefefe;stroke-width:0.40400001;stroke-linecap:butt;stroke-linejoin:miter;stroke-miterlimit:10;stroke-dasharray:none;stroke-opacity:1"
             d="M 0,0 -2.867,-4.838" /></g><g
           transform="translate(386.2427,55.3927)"
           id="g730"><path
             id="path732"
             style="fill:none;stroke:#fefefe;stroke-width:0.40400001;stroke-linecap:butt;stroke-linejoin:miter;stroke-miterlimit:10;stroke-dasharray:none;stroke-opacity:1"
             d="M 0,0 -2.867,-4.838" /></g><g
           transform="translate(325.6782,54.3176)"
           id="g734"><path
             id="path736"
             style="fill:none;stroke:#fefefe;stroke-width:0.40400001;stroke-linecap:butt;stroke-linejoin:miter;stroke-miterlimit:10;stroke-dasharray:none;stroke-opacity:1"
             d="M 0,0 -2.867,-4.838" /></g><g
           transform="translate(323.8864,55.3927)"
           id="g738"><path
             id="path740"
             style="fill:none;stroke:#fefefe;stroke-width:0.40400001;stroke-linecap:butt;stroke-linejoin:miter;stroke-miterlimit:10;stroke-dasharray:none;stroke-opacity:1"
             d="M 0,0 -2.867,-4.838" /></g><g
           transform="translate(301.3823,69.2269)"
           id="g742"><path
             id="path744"
             style="fill:#fb1370;fill-opacity:1;fill-rule:nonzero;stroke:none"
             d="M 0,0 2.728,19.485 42.089,18.706 40.14,-0.39 Z" /></g><g
           id="g746"><g
             id="g748" /><g
             id="g760"><g
               id="g758"
               clip-path="url(#clipPath752)"><g
                 id="g756"
                 transform="translate(316.5742,73.3987)"><path
                   id="path754"
                   style="fill:#fb1370;fill-opacity:1;fill-rule:nonzero;stroke:none"
                   d="m 0,0 c -5.847,3.892 -10.003,9.056 -12.508,14.999 l -2.684,-19.171 23.71,-0.23 C 5.535,-3.226 2.673,-1.779 0,0" /></g></g></g></g><g
           transform="translate(352.824,69.2269)"
           id="g762"><path
             id="path764"
             style="fill:#fb1370;fill-opacity:1;fill-rule:nonzero;stroke:none"
             d="M 0,0 2.728,19.485 42.089,18.706 40.14,-0.39 Z" /></g><g
           id="g766"><g
             id="g768" /><g
             id="g780"><g
               id="g778"
               clip-path="url(#clipPath772)"><g
                 id="g776"
                 transform="translate(365.8813,77.0347)"><path
                   id="path774"
                   style="fill:#fb1370;fill-opacity:1;fill-rule:nonzero;stroke:none"
                   d="m 0,0 c -3.692,3.154 -6.465,7.213 -8.55,11.642 l -1.779,0.036 -2.68,-19.364 C -10.946,-8.099 15.729,-8.087 15.729,-8.087 10.012,-6.421 4.525,-3.866 0,0" /></g></g></g></g><g
           transform="translate(330.4916,138.1479)"
           id="g782"><path
             id="path784"
             style="fill:#ffffff;fill-opacity:1;fill-rule:nonzero;stroke:none"
             d="m 0,0 h -135.613 c -3.82,0 -6.916,3.096 -6.916,6.916 0,3.819 3.096,6.915 6.916,6.915 H 0 c 3.819,0 6.916,-3.096 6.916,-6.915 C 6.916,3.096 3.819,0 0,0" /></g><g
           transform="translate(330.4916,151.9792)"
           id="g786"><path
             id="path788"
             style="fill:#fb1370;fill-opacity:1;fill-rule:nonzero;stroke:none"
             d="m 0,0 h -25.097 c 3.82,0 6.916,-3.096 6.916,-6.916 0,-3.819 -3.096,-6.915 -6.916,-6.915 H 0 c 3.819,0 6.916,3.096 6.916,6.915 C 6.916,-3.096 3.819,0 0,0" /></g><g
           transform="translate(330.4916,138.1479)"
           id="g790"><path
             id="path792"
             style="fill:none;stroke:#482480;stroke-width:1.11300004;stroke-linecap:butt;stroke-linejoin:miter;stroke-miterlimit:10;stroke-dasharray:none;stroke-opacity:1"
             d="m 0,0 h -135.613 c -3.82,0 -6.916,3.096 -6.916,6.916 0,3.819 3.096,6.915 6.916,6.915 H 0 c 3.819,0 6.916,-3.096 6.916,-6.915 C 6.916,3.096 3.819,0 0,0 Z" /></g><g
           transform="translate(321.3957,144.1422)"
           id="g794"><path
             id="path796"
             style="fill:#ffffff;fill-opacity:1;fill-rule:nonzero;stroke:none"
             d="m 0,0 c -0.866,0.866 -0.866,2.27 0,3.136 0.866,0.866 2.27,0.866 3.136,0 C 4.002,2.27 4.002,0.866 3.136,0 2.27,-0.866 0.866,-0.866 0,0 m 5.937,-1.77 -1.5,1.499 c 0.848,1.32 0.696,3.095 -0.458,4.25 -1.332,1.331 -3.491,1.331 -4.822,0 -1.331,-1.332 -1.331,-3.49 0,-4.822 1.154,-1.154 2.93,-1.306 4.25,-0.459 l 1.499,-1.499 c 0.285,-0.284 0.746,-0.284 1.031,0 0.284,0.285 0.284,0.746 0,1.031" /></g></g></g><text
       id="text800"
       style="font-variant:normal;font-weight:600;font-stretch:normal;font-size:7.89610004px;font-family:'Poppins SemiBold';-inkscape-font-specification:Poppins-SemiBold;writing-mode:lr-tb;fill:#482480;fill-opacity:1;fill-rule:nonzero;stroke:none"
       transform="matrix(1,0,0,-1,194.8047,143.2705)"><tspan
         id="tspan798"
         y="0"
         x="0 6.6643085 13.328617 19.992926 22.045912 24.241028 29.46035 32.524036 37.395931 40.585953 45.805275 50.67717 53.740856 59.094414 64.447968 69.225105 71.278091 76.031548 81.06926">www.internetday.com</tspan></text>
</g></svg>